<?xml version="1.0" encoding="utf-8"?>
<!DOCTYPE svg PUBLIC "-//W3C//DTD SVG 20010904//EN" "http://www.w3.org/TR/2001/REC-SVG-20010904/DTD/svg10.dtd">
<svg version="1.0" xmlns="http://www.w3.org/2000/svg" width="800px" height="800px" viewBox="0 0 800 800" preserveAspectRatio="xMidYMid meet">
 <g fill="#ffffff">
  <path d="M377.9 783.6 c-0.2 -0.2 -4.9 -0.6 -10.4 -1 -34.4 -2.3 -79.7 -12.8 -109 -25.3 -33.9 -14.4 -38.1 -16.6 -62.3 -31.7 -18.7 -11.8 -21.7 -13.9 -39.3 -28.1 -33.4 -26.8 -64.2 -63 -89.1 -104.5 -7.8 -13 -23.4 -46.3 -29.6 -63.2 -8.5 -23.1 -16.1 -57.5 -19.9 -89.6 -1.7 -15.1 -2.5 -61 -1.2 -68.9 0.5 -2.6 1.6 -11.1 2.5 -18.8 4.2 -37.4 13 -70 28.7 -105.5 11.9 -27.1 18.3 -38.6 37.3 -67 16.3 -24.3 47 -57.5 70.7 -76.6 15.3 -12.2 25 -19.2 41.2 -29.3 34.3 -21.5 75 -38.6 111.5 -46.9 60.6 -13.8 112.4 -14.5 173.2 -2.1 31.8 6.4 60.5 16.7 94.5 33.7 14.5 7.3 43.9 25.8 55.4 34.8 42.4 33.4 68.2 62.2 97.2 108.6 12.3 19.6 28.1 53.6 35.7 76.8 18.1 55.1 23.4 118.9 14.9 178.5 -4.1 28.3 -15.7 72.4 -21.9 83.2 -0.5 1 -3.3 7.2 -6.1 13.8 -18.6 43.4 -45.8 83.3 -80.5 117.9 -34.1 34 -75 61.9 -117 79.7 -5.4 2.3 -11.7 5 -14 6 -25.9 11.5 -71.4 21.8 -110.3 24.8 -12.7 1 -51.3 1.5 -52.2 0.7z m65.1 -19 c79.4 -10.7 150.2 -44.1 207.4 -97.9 63.3 -59.5 102.5 -136.6 114.3 -224.7 2.2 -16.9 2.5 -63.6 0.5 -80.5 -8.2 -66.5 -32.4 -127.8 -71.3 -179.8 -41.7 -55.9 -96.5 -97.8 -161.8 -123.9 -43.5 -17.3 -99.5 -27.3 -143.1 -25.3 -95.1 4.1 -181.4 41.9 -248 108.5 -81.1 81 -120.4 194.9 -105.4 305.5 10.5 77.8 45.9 150.8 99.9 206.4 33 33.9 63.2 56.1 104 76.1 41.8 20.6 82.5 32.2 129.5 36.9 14.4 1.4 59.2 0.6 74 -1.3z"/>
  <path d="M340.5 422.4 c-6 -3.6 -18.8 -10.8 -28.2 -16.1 l-17.3 -9.7 0 -3.7 c0 -2.7 1.4 -5.6 5.6 -11.9 6.6 -9.8 13.3 -23.1 17.9 -35 3.2 -8.2 3.4 -8.5 6.8 -8.8 l3.4 -0.3 1.8 8.3 c4.6 21.3 14.4 49.6 23.4 67.7 2.8 5.4 4.1 9.4 4.1 12.1 0 3.9 -0.1 4 -3.2 3.9 -2.2 0 -7.1 -2.3 -14.3 -6.5z"/>
  <path d="M441 425.7 c0 -1.9 1.9 -7.3 4.6 -12.8 9.1 -18.6 19.5 -48.1 23.4 -66.4 2.1 -10 1.8 -9.5 5.3 -9.5 3.3 0 3.4 0.2 6.7 8.8 4.6 12.2 11.9 26.6 18.5 36.1 3.8 5.7 5.5 9.1 5.5 11.4 0 3 -0.6 3.5 -7.8 7.5 -9.1 5 -28.1 15.7 -40.7 23 -5.8 3.4 -10.1 5.2 -12.2 5.2 -3.1 0 -3.3 -0.2 -3.3 -3.3z"/>
  <path d="M210.5 352.3 c-29.7 -15 -72.7 -35.4 -93.2 -44.4 l-10.2 -4.4 -0.1 -4.1 c0 -6.9 11.4 -33.9 23 -54.1 41 -71.3 108.5 -123.4 187.4 -144.7 19.5 -5.3 47 -9.6 61.3 -9.6 l7.3 0 0 3.1 c0 2.1 -1.4 4.9 -4.4 8.8 -22.8 29.6 -41.4 70.2 -50.6 110.4 l-2.2 9.7 -3.7 0 -3.6 0 -2.8 -8 c-3.3 -9.4 -10.6 -23.7 -16.9 -33.5 -3.5 -5.5 -19.9 -27.3 -23.8 -31.8 -0.9 -1.1 -19.4 22.5 -26.6 33.9 -11 17.7 -20 40.6 -24.4 62.9 -3.2 15.8 -3.8 41.3 -1.5 57.7 2 14.4 6.9 32.8 11.9 45.3 7.6 18.7 5.2 19 -26.9 2.8z"/>
  <path d="M559.3 359.8 c0.2 -2.4 2.5 -9.9 5 -16.8 9.9 -27.4 13.4 -54.2 10.6 -79.8 -3.2 -30.2 -13.5 -59.7 -28.5 -82.2 -4.4 -6.7 -19.3 -26.5 -23.5 -31.3 -0.7 -0.9 -17.2 19.8 -24.9 31.2 -5.5 8.2 -14.1 25.4 -17.5 35.4 -2.7 7.5 -2.9 7.7 -6 7.7 l-3.2 0 -2.8 -11.7 c-9.1 -38.9 -25 -74.2 -48 -106.1 -4.8 -6.7 -6.5 -10 -6.5 -12.3 l0 -3.2 12.3 0.6 c14.3 0.7 37.5 4.5 53.7 8.8 79 20.8 145.6 71.1 187.2 141.2 12 20.3 25.8 51.6 25.8 58.7 0 2.7 -0.6 3.3 -5.2 5.3 -21 9.3 -53.8 24.9 -85.1 40.4 -26.8 13.3 -37.8 18.3 -40.4 18.3 l-3.5 0 0.5 -4.2z"/>
 </g>
 <g fill="#ffcf4b">
  <path d="M385.6 433.3 c-24.5 -37 -39.2 -80.3 -43.7 -128.6 -1.7 -18.2 -0.6 -56.5 1.9 -73.2 3.1 -19.9 5.9 -31.5 11.9 -49.9 6.1 -18.4 17.9 -43.5 27.8 -58.9 5.2 -8 5.9 -8.7 8.9 -8.7 2.4 0 3.8 0.7 5.3 2.8 4.4 5.9 14.9 22 17.2 26.2 1.4 2.5 2.7 4.7 3 5 1.2 1 8.1 15.2 8.1 16.6 0 0.8 0.5 1.4 1 1.4 0.6 0 1 0.8 1 1.8 0 0.9 0.7 2.6 1.5 3.6 0.8 1.1 1.5 2.6 1.5 3.4 0 0.7 1.1 3.7 2.4 6.5 6.2 13.2 13.3 43.3 15.7 66.1 1.5 15.7 0.7 56.4 -1.6 70.6 -6.6 42.4 -19.4 79.4 -39.7 115.1 -7 12.3 -7.4 12.9 -10.5 12.9 -3 0 -3.7 -0.8 -11.7 -12.7z"/>
  <path d="M267.3 373.8 c-5.3 -8 -14.4 -27 -17.7 -36.9 -6.3 -19.5 -9.2 -42.8 -8.2 -64.9 1.3 -29 7.4 -52 19.9 -74.8 l5.1 -9.3 4 0.3 c3.9 0.3 4.2 0.6 9.4 8.8 2.9 4.7 6.4 11 7.8 14 1.4 3 3.2 6.7 4 8.2 0.8 1.4 1.4 3.5 1.4 4.5 0 1 0.4 2.3 0.9 2.8 1.5 1.5 5.7 16.9 7.7 28 2.4 13.9 2.5 49.9 0 63.5 -3.5 19.8 -9.8 37.5 -18.8 53.3 -4.6 8.1 -5.2 8.7 -8.1 8.7 -2.8 0 -3.7 -0.8 -7.4 -6.2z"/>
  <path d="M512.3 373.8 c-18 -26.8 -27.6 -64.1 -26 -101.3 1.3 -29.5 7.7 -53.4 20.5 -76.3 4.4 -8 4.7 -8.2 8.2 -8.2 3.5 0 4 0.4 8.4 7.1 2.5 3.9 4.6 7.5 4.6 7.9 0 0.4 0.9 1.8 2.1 3.1 1.1 1.3 2.3 3.6 2.6 5.2 0.3 1.5 1 3 1.4 3.3 0.5 0.3 0.9 1.4 0.9 2.5 0 1 0.5 1.9 1 1.9 0.6 0 1 0.9 1 2 0 1.2 0.7 3.1 1.5 4.3 1.9 3 7.1 23.3 8.7 34.3 1.6 11.2 1.6 44.3 -0.1 54.9 -3.2 20.7 -10.6 42.1 -19.7 57.5 -4.3 7.2 -5.1 8 -7.8 8 -2.7 0 -3.7 -0.9 -7.3 -6.2z"/>
 </g>
 <g fill="#f8ac3c">
  <path d="M395.6 447.4 c-0.3 -0.9 -0.6 -3 -0.6 -4.7 0 -2.9 0.1 -3 1.5 -1.1 1.1 1.5 1.5 1.6 1.6 0.4 0.1 -0.8 0.1 -1.8 0 -2.2 0 -0.5 0.4 -0.8 1 -0.8 0.5 0 0.8 -0.4 0.5 -0.9 -0.3 -0.5 0.1 -1.2 1 -1.5 0.8 -0.3 1.2 -1 0.9 -1.6 -0.3 -0.5 -0.1 -1 0.5 -1 0.6 0 0.9 -0.4 0.6 -0.9 -0.3 -0.5 0.1 -1.2 1 -1.5 0.8 -0.3 1.2 -1 0.9 -1.6 -0.3 -0.5 -0.1 -1 0.5 -1 0.6 0 0.8 -0.4 0.5 -1 -0.3 -0.5 -0.1 -1 0.5 -1 0.6 0 0.8 -0.4 0.5 -1 -0.3 -0.5 -0.1 -1 0.4 -1 1.4 0 11.3 -19.8 10.6 -21 -0.4 -0.6 -0.1 -1 0.5 -1 0.6 0 0.8 -0.4 0.5 -1 -0.3 -0.5 -0.1 -1 0.6 -1 0.7 0 1 -0.3 0.6 -0.6 -0.3 -0.4 0.1 -1.3 0.9 -2.1 0.8 -0.9 1.3 -2 1.1 -2.7 -0.2 -0.6 0.3 -1.7 1 -2.5 0.8 -0.7 1.2 -2 0.9 -2.7 -0.3 -0.8 -0.1 -1.4 0.5 -1.4 0.6 0 0.7 -0.4 0.4 -1 -0.3 -0.5 -0.1 -1 0.5 -1 0.7 0 1 -0.6 0.8 -1.2 -0.3 -0.7 0.2 -1.9 0.9 -2.7 0.8 -0.7 1.2 -2 0.9 -2.7 -0.3 -0.8 -0.1 -1.4 0.5 -1.4 0.6 0 0.9 -0.7 0.5 -1.5 -0.3 -0.8 -0.1 -1.5 0.5 -1.5 0.6 0 0.9 -0.7 0.5 -1.5 -0.3 -0.8 -0.1 -1.5 0.5 -1.5 0.6 0 0.9 -0.7 0.5 -1.5 -0.3 -0.8 -0.1 -1.5 0.5 -1.5 0.6 0 0.9 -0.7 0.5 -1.5 -0.3 -0.8 -0.1 -1.5 0.5 -1.5 0.6 0 0.9 -0.7 0.5 -1.5 -0.3 -0.8 -0.1 -1.5 0.5 -1.5 0.6 0 0.9 -0.7 0.5 -1.5 -0.3 -0.8 0 -1.5 0.5 -1.5 0.6 0 0.9 -0.9 0.6 -2 -0.3 -1.1 -0.1 -2 0.5 -2 0.6 0 0.8 -0.7 0.4 -1.5 -0.3 -0.8 0 -1.5 0.5 -1.5 0.6 0 0.9 -0.9 0.6 -2 -0.3 -1.1 -0.1 -2 0.5 -2 0.5 0 0.6 -0.9 0.3 -2 -0.4 -1.2 -0.2 -2 0.5 -2 0.7 0 0.9 -0.8 0.5 -2 -0.4 -1.2 -0.2 -2 0.5 -2 0.7 0 1 -0.8 0.7 -2 -0.3 -1.1 -0.1 -2.3 0.5 -2.6 0.5 -0.3 0.7 -1.3 0.4 -2.1 -0.4 -0.9 -0.1 -2.2 0.5 -2.9 0.6 -0.7 0.8 -1.8 0.4 -2.4 -0.3 -0.5 -0.3 -1.6 0.2 -2.2 0.4 -0.7 0.9 -2.4 1.1 -3.8 0.4 -4.1 0.9 -7.4 1.2 -8.5 0.3 -1 0.4 -1.9 1.6 -13 0.8 -8.1 0.8 -46.5 -0.1 -54 -1.2 -10.3 -2 -15.8 -3 -20.5 -0.9 -4.5 -1.6 -8.5 -1.7 -10 0 -0.8 -0.5 -2 -1 -2.7 -0.5 -0.7 -0.7 -1.7 -0.4 -2.2 0.4 -0.5 0.1 -1.3 -0.5 -1.6 -0.5 -0.4 -0.8 -1.3 -0.5 -2 0.2 -0.7 0.2 -1.6 -0.2 -1.9 -0.3 -0.4 -0.7 -1.3 -0.9 -2.1 -0.5 -2.7 -1.1 -5 -1.3 -5.2 -0.2 -0.2 -0.4 -0.7 -0.5 -1.3 -0.1 -0.5 -0.4 -1.2 -0.5 -1.5 -0.1 -0.3 -0.4 -0.9 -0.5 -1.5 -0.1 -0.5 -0.4 -1.2 -0.5 -1.5 -0.1 -0.3 -0.4 -0.9 -0.5 -1.5 -0.1 -0.5 -0.4 -1.2 -0.5 -1.5 -0.1 -0.3 -0.4 -0.9 -0.5 -1.5 -0.1 -0.5 -0.4 -1.2 -0.5 -1.5 -0.1 -0.3 -0.3 -0.8 -0.4 -1.2 -0.1 -0.5 -0.9 -2.5 -1.9 -4.6 -1 -2.1 -2 -4.6 -2.2 -5.7 -0.2 -1 -1.1 -2.9 -1.9 -4.3 -0.9 -1.3 -1.3 -2.7 -0.9 -3 0.3 -0.4 0.1 -0.7 -0.5 -0.7 -0.6 0 -1.3 -1.3 -1.7 -2.9 -0.3 -1.6 -2.1 -5.4 -4 -8.5 -1.8 -3.1 -3 -5.6 -2.7 -5.6 0.4 0 0.2 -0.4 -0.4 -0.8 -0.6 -0.4 -2.1 -2.7 -3.5 -5.2 -2.3 -4.2 -12.8 -20.3 -17.3 -26.3 -1.9 -2.6 -2.1 -2.7 -3.3 -1.1 -1.1 1.6 -1.3 1.3 -1.3 -2 0 -5.5 5.4 -12.5 9.7 -12.6 3.7 0 5.4 2 15.6 17.6 21.3 32.5 35 70 41.4 112.9 1.4 9.5 1.8 18.3 1.7 42.5 0 26.6 -0.3 32.4 -2.2 44.9 -7 44.4 -24.4 88.2 -47.4 119.3 -5.2 7.1 -6.1 7.8 -9.2 7.8 -2.2 0 -3.6 -0.6 -4 -1.6z"/>
  <path d="M272.6 381.5 c-0.3 -0.9 -0.6 -3.1 -0.6 -4.8 0.1 -3 0.2 -3.1 1.5 -1.4 1.3 1.8 1.4 1.8 2.5 -0.2 0.6 -1.2 0.7 -2.1 0.3 -2.1 -0.4 0 0 -0.5 1 -1.1 0.9 -0.6 1.5 -1.4 1.2 -2 -0.4 -0.5 -0.1 -0.9 0.5 -0.9 0.6 0 0.8 -0.4 0.5 -1 -0.3 -0.5 -0.1 -1 0.5 -1 0.6 0 0.8 -0.4 0.5 -1 -0.3 -0.5 -0.2 -1 0.4 -1 1.4 0 5.3 -7.8 4.6 -9 -0.3 -0.6 -0.1 -1 0.6 -1 0.7 0 1 -0.3 0.6 -0.6 -0.3 -0.4 0.1 -1.3 0.9 -2.1 0.8 -0.9 1.3 -2.2 1 -2.9 -0.3 -0.8 -0.1 -1.4 0.5 -1.4 0.6 0 0.7 -0.4 0.4 -1 -0.3 -0.5 -0.1 -1 0.5 -1 0.7 0 1 -0.7 0.6 -1.5 -0.3 -0.8 -0.1 -1.5 0.5 -1.5 0.6 0 0.9 -0.7 0.5 -1.5 -0.3 -0.8 -0.1 -1.5 0.5 -1.5 0.6 0 0.9 -0.7 0.5 -1.5 -0.3 -0.8 -0.1 -1.5 0.5 -1.5 0.6 0 0.9 -0.7 0.6 -1.5 -0.4 -0.8 -0.2 -1.7 0.4 -2.1 0.6 -0.3 0.8 -1.2 0.5 -2 -0.3 -0.8 0 -1.4 0.5 -1.4 0.6 0 0.9 -0.9 0.6 -2 -0.3 -1.1 -0.1 -2 0.5 -2 0.6 0 0.8 -0.9 0.5 -2 -0.3 -1.1 -0.1 -2.2 0.4 -2.5 0.5 -0.4 0.9 -1.6 0.9 -2.8 0 -1.2 0.2 -3.8 0.5 -5.7 1.2 -7 1.6 -14.8 1.6 -26.5 0.1 -13.8 -0.7 -23.1 -2.6 -33 -0.3 -1.6 -0.6 -3.7 -0.7 -4.5 0 -0.8 -0.5 -2 -1 -2.7 -0.5 -0.7 -0.7 -1.7 -0.4 -2.2 0.4 -0.5 0.2 -1.2 -0.4 -1.6 -0.6 -0.4 -0.8 -1.1 -0.4 -1.6 0.3 -0.5 0 -1.6 -0.6 -2.4 -0.7 -0.8 -0.9 -1.5 -0.5 -1.5 0.4 0 0.2 -0.7 -0.5 -1.5 -0.7 -0.8 -0.9 -1.5 -0.5 -1.5 0.4 0 0.2 -0.7 -0.5 -1.5 -0.7 -0.8 -0.9 -1.5 -0.5 -1.5 0.4 0 0.3 -0.6 -0.3 -1.3 -0.6 -0.7 -1.3 -2.4 -1.6 -3.9 -0.2 -1.4 -1.3 -3.9 -2.3 -5.4 -1 -1.6 -1.7 -3.1 -1.7 -3.4 0.5 -1.7 -12.5 -24.2 -14.8 -25.6 -0.5 -0.3 -1.6 0.2 -2.3 1.2 -1.3 1.8 -1.4 1.6 -1.5 -1.6 0 -2.3 1.1 -5.1 3.3 -8.3 3 -4.5 3.4 -4.7 7.2 -4.5 3.7 0.3 4.3 0.8 8.7 7.3 6.6 9.7 15.2 27.2 18.8 38.3 16.3 50.5 9 110.4 -18.2 150.7 -5.2 7.6 -5.7 8 -9.5 8.3 -3 0.2 -4.2 -0.1 -4.7 -1.3z"/>
  <path d="M517.6 381.4 c-0.3 -0.9 -0.6 -3 -0.6 -4.7 0.1 -2.9 0.2 -3 1.4 -1.4 1.3 1.7 1.4 1.7 2 0 0.4 -1 0.7 -2 0.7 -2.3 0 -0.3 0.7 -0.9 1.5 -1.3 0.8 -0.5 1.2 -1.2 0.9 -1.8 -0.4 -0.5 -0.1 -0.9 0.5 -0.9 0.6 0 0.8 -0.4 0.5 -1 -0.3 -0.5 -0.1 -1 0.5 -1 0.6 0 0.8 -0.4 0.5 -1 -0.3 -0.5 -0.2 -1 0.4 -1 1.4 0 5.3 -7.8 4.6 -9 -0.3 -0.6 -0.1 -1 0.6 -1 0.7 0 1 -0.3 0.6 -0.6 -0.3 -0.4 0.1 -1.3 0.9 -2.1 0.8 -0.9 1.3 -2 1.1 -2.7 -0.2 -0.6 0.3 -1.7 1 -2.5 0.8 -0.7 1.2 -2 0.9 -2.7 -0.3 -0.8 -0.1 -1.4 0.5 -1.4 0.6 0 0.9 -0.7 0.5 -1.5 -0.3 -0.8 -0.1 -1.5 0.5 -1.5 0.6 0 0.9 -0.7 0.5 -1.5 -0.3 -0.8 -0.1 -1.5 0.5 -1.5 0.6 0 0.9 -0.7 0.6 -1.5 -0.4 -0.8 -0.2 -1.7 0.4 -2.1 0.6 -0.3 0.8 -1.2 0.5 -2 -0.3 -0.7 -0.1 -1.6 0.5 -2 0.6 -0.3 0.8 -1.2 0.5 -2 -0.3 -0.7 -0.1 -1.6 0.5 -2 0.6 -0.3 0.8 -1.2 0.5 -2 -0.3 -0.7 0 -1.6 0.5 -2 0.6 -0.3 0.8 -1.7 0.5 -2.9 -0.3 -1.3 -0.2 -2.6 0.4 -3 0.5 -0.3 0.9 -1.8 0.9 -3.3 0 -1.5 0.4 -5.6 0.7 -9.2 1.6 -14.4 0.7 -34.4 -2.1 -48.2 -0.3 -1.6 -0.7 -3.8 -1 -5 -0.2 -1.3 -0.7 -3.4 -1 -4.8 -0.3 -1.4 -0.8 -3.2 -1 -4 -0.2 -0.8 -0.4 -1.6 -0.5 -1.7 -0.2 -0.2 -0.4 -0.7 -0.5 -1.3 -0.1 -0.5 -0.4 -1.3 -0.5 -1.7 -0.1 -0.5 -0.2 -1.2 -0.1 -1.7 0.1 -0.4 -0.4 -1.4 -1 -2.2 -0.6 -0.8 -0.9 -1.4 -0.5 -1.4 0.3 0 -0.3 -1.6 -1.4 -3.7 -1 -2 -1.7 -4 -1.4 -4.5 0.3 -0.4 0 -0.8 -0.5 -0.8 -0.6 0 -1.1 -0.8 -1.1 -1.7 0 -1 -0.7 -2.7 -1.5 -3.7 -0.8 -1 -1.2 -2.3 -0.9 -2.7 0.3 -0.5 0 -0.9 -0.6 -0.9 -0.6 0 -0.8 -0.4 -0.5 -1 0.3 -0.5 0.1 -1 -0.5 -1 -0.6 0 -0.8 -0.4 -0.5 -1 0.3 -0.5 0.2 -1 -0.4 -1 -0.5 0 -1.3 -0.9 -1.6 -2.1 -0.6 -1.9 -7.7 -13.3 -9.6 -15.3 -0.6 -0.6 -1.5 -0.2 -2.4 1 -1.3 1.8 -1.4 1.7 -1.5 -1.8 0 -2.6 1 -5.1 3.2 -8.3 3 -4.3 3.5 -4.6 7.2 -4.3 3.7 0.3 4.3 0.8 8.8 7.3 6.5 9.3 15 26.8 18.8 38.3 16.2 50.2 9.3 108.6 -17.9 150 -5.9 9 -6.1 9.2 -10 9.2 -2.6 0 -4.1 -0.5 -4.5 -1.6z"/>
 </g>
 <g fill="#6eb260">
  <path d="M377 749 c-5.8 -0.4 -12.2 -0.8 -14.2 -0.9 -3.6 -0.1 -3.8 -0.3 -3.8 -3.4 0 -2.8 2.6 -6.5 17.2 -24.3 53.2 -64.9 102.2 -118.9 164.3 -180.9 61.5 -61.5 118.9 -113.6 182.5 -165.4 15.1 -12.4 19 -15.1 21.6 -15.1 l3.1 0 0.6 6.8 c0.4 3.7 0.7 8.8 0.7 11.3 l0 4.5 -33.3 33.5 c-99.5 99.9 -186.2 202.7 -264.7 313.6 l-13.5 19.1 -5 0.6 c-8.9 1 -44.6 1.4 -55.5 0.6z"/>
  <path d="M271.5 726.1 c-9.4 -3.7 -23.4 -10 -31.3 -14 -13.6 -7 -14.2 -7.4 -14.2 -10.3 0 -3.4 0.6 -4.1 33 -33.3 100.6 -90.8 212.5 -175.5 330.7 -250.4 20.9 -13.2 71.5 -43.7 90.8 -54.6 46.6 -26.5 56.1 -31.5 59.9 -31.5 l3.3 0 1.2 6.9 c2 12.3 2.9 10.9 -14.1 22.2 -107.1 71.5 -211.8 154.8 -311.8 248.2 -25.6 24 -86.5 84.8 -107.5 107.5 -18.3 19.8 -15.6 19.1 -40 9.3z"/>
  <path d="M505 729 c0 -3.5 5.3 -12.6 29.3 -50.5 57 -89.9 123.1 -179.9 194.7 -265.3 13.1 -15.7 13.6 -16.1 17.4 -16.2 l3.9 0 -0.7 16.3 -0.7 16.2 -7.6 11 c-58.1 84.8 -100.2 153.3 -142.5 232 -7.5 13.9 -14.1 25.1 -15.8 26.6 -4.5 3.9 -36.7 20 -53 26.5 -8.8 3.5 -16.6 5.9 -19.7 6.2 l-5.3 0.4 0 -3.2z"/>
  <path d="M175 625.8 c-34.5 -60.4 -75 -124.9 -112.2 -178.6 l-11.9 -17.2 -0.6 -16.5 -0.6 -16.5 3.6 0 c3.4 0 4.3 0.8 20.9 20.7 50.9 60.9 95.7 119.6 139 182.2 17.1 24.6 17.2 22.2 -2.3 37.1 -12.2 9.4 -15.7 11.6 -18.8 11.8 l-3.8 0.3 -13.3 -23.3z"/>
  <path d="M231.8 577.2 c-46.5 -56.2 -97 -111.3 -152.1 -166.3 l-28.7 -28.8 0 -7.8 c0 -4.3 0.3 -9.5 0.6 -11.5 0.6 -3.5 1 -3.8 3.8 -3.8 2.5 0 6.7 3 22.6 16.1 55.5 45.7 96.8 82.5 153.3 136.7 42.3 40.7 59.7 59 59.7 62.9 0 2.7 -1.6 4.1 -16.2 14.6 -13.6 9.9 -16.7 11.7 -19.7 11.7 -3.5 -0.1 -4.4 -1 -23.3 -23.8z"/>
  <path d="M305 541.4 c-68.5 -59.5 -144.8 -118 -224.3 -172.3 -13.1 -8.9 -24.5 -16.5 -25.4 -16.8 -1.3 -0.5 -1.5 -1.8 -0.9 -8.2 0.9 -11.2 1.3 -12.1 5.1 -12.1 3.4 0 22.9 10.3 61.5 32.5 78.4 45 149.6 91.2 223.3 144.8 17.4 12.7 17.7 12.9 17.7 16.5 -0.1 3.7 -0.2 3.8 -18.5 16 -12.6 8.3 -19.4 12.2 -21.2 12.2 -2.1 -0.1 -6.4 -3.2 -17.3 -12.6z"/>
  <path d="M376 490.4 c-81.1 -50 -181.6 -103.5 -264.5 -141 -3.3 -1.4 -9.4 -4.2 -13.5 -6.1 -4.1 -1.9 -12 -5.4 -17.5 -7.8 -23.2 -10 -21.5 -8.9 -21.5 -13.8 0 -12.7 13.5 -51.8 27.3 -79.2 19 -37.6 39 -65 68.8 -94 16.5 -16.1 28.3 -25.7 45.9 -37.7 47.3 -32.2 96.3 -50.7 154.5 -58.5 16.6 -2.2 67.4 -2.5 84 -0.5 82.7 10.1 151.8 43.3 208.5 100.1 33.6 33.7 58.8 71.7 76.6 115.4 5.3 13.1 12.6 35.5 14.9 45.8 2.8 12.9 3.9 11.7 -19 21.8 -102 44.9 -198.3 95.3 -294.2 153.9 -17.7 10.9 -23.9 14.2 -26.5 14.2 -2.5 0 -8.4 -3.2 -23.8 -12.6z m88 -52.9 c54.2 -31.4 113.4 -62.7 173.5 -91.5 16.7 -8 60.5 -28.1 69 -31.7 3.3 -1.4 6.4 -2.9 6.9 -3.3 0.4 -0.5 -0.6 -5.2 -2.4 -10.7 -17.5 -53.3 -51 -104.9 -91.7 -141.5 -50.4 -45.3 -107.9 -72.3 -176.8 -83 -18.8 -2.9 -53.1 -3.5 -73.4 -1.4 -92.6 9.9 -175.1 56.7 -231.2 131.2 -20 26.6 -38.3 61.9 -48.9 94.2 -1.6 5.2 -3 9.8 -3 10.3 0 1 3.5 2.7 21.5 10.7 49.6 22 112.7 53.1 164.5 81 31.5 17 70.4 39.2 107.3 61.4 l20.8 12.5 19.2 -11.7 c10.6 -6.4 30.7 -18.3 44.7 -26.5z"/>
 </g>
 <g fill="#0f5f54">
  <path d="M366 768.9 c-46.9 -4.7 -87.7 -16.3 -129.5 -36.9 -40.8 -20 -71 -42.2 -104 -76.1 -92.9 -95.6 -126.4 -236.3 -86.8 -364.9 35.3 -114.9 124.9 -206.1 239.2 -243.4 89.9 -29.4 186.8 -23.3 273.3 17.2 23.2 10.9 52.9 29.4 73.3 45.8 32.5 26.1 64 62.3 85.2 97.6 28.3 47.3 44.7 95.3 51.5 150.3 2.1 17.2 1.8 69.5 -0.5 86.5 -11.8 88.2 -51 165.2 -114.3 224.7 -57.2 53.8 -127.8 87.2 -207.4 97.9 -14.7 2 -65.1 2.8 -80 1.3z m63 -23.5 l5.5 -0.6 13.5 -19.1 c78.4 -110.8 165.4 -213.9 264.8 -313.7 l33.4 -33.5 -0.9 -8.3 -0.8 -8.3 -18.5 15.1 c-98.6 80.5 -197.2 175.1 -281.7 270.2 -39.9 44.9 -83.3 97.1 -81.1 97.6 8.8 1.8 50.6 2.2 65.8 0.6z m-120.5 -31.6 c21 -22.7 81.9 -83.5 107.5 -107.5 100.1 -93.4 204.7 -176.7 311.8 -248.2 11.6 -7.7 15.2 -10.6 14.8 -11.9 -0.3 -0.9 -0.8 -3.8 -1.2 -6.4 -0.3 -2.7 -0.8 -4.8 -1 -4.8 -0.4 0 -19 10.1 -33.8 18.4 -66.4 37.3 -134 79.2 -191.6 118.9 -98.5 67.8 -194.5 144.5 -278.3 222.3 l-7.8 7.2 14.3 7.3 c12.8 6.5 46.8 20.9 49.3 20.9 0.6 0 7.8 -7.3 16 -16.2z m219 8.5 c15.8 -6.2 48 -22.3 52.5 -26.2 1.7 -1.5 8.3 -12.7 15.8 -26.6 42.3 -78.8 82.6 -144.3 142.5 -232 l7.5 -11 0.7 -13.2 c0.3 -7.3 0.3 -13.3 -0.2 -13.3 -1.4 0.1 -40.8 47.7 -68 82.2 -54.6 69.4 -119.7 162.9 -161.3 231.8 -3.5 5.8 -7 11.6 -7.9 12.9 -1.5 2.4 -1.5 2.4 1.4 1.7 1.7 -0.4 9.3 -3.2 17 -6.3z m-322.1 -86.4 c7.1 -5.5 14 -10.9 15.4 -12 l2.5 -1.9 -8.3 -12.3 c-32.2 -46.9 -79.2 -110 -115.9 -155.2 -17.2 -21.2 -45.2 -54.5 -45.8 -54.5 -0.3 0 -0.3 6.1 0 13.6 l0.7 13.6 11.9 17.1 c37.1 53.6 77.6 118.2 112 178.5 7.3 12.7 13.6 23.2 14 23.2 0.3 0 6.4 -4.6 13.5 -10.1z m67.1 -50 l15.4 -11.2 -13.9 -14.7 c-14.3 -15 -66.6 -65.7 -91.5 -88.6 -32.9 -30.2 -71.5 -63.7 -107.5 -93.3 -22 -18.1 -20.6 -17.8 -20.9 -4.8 l-0.1 5.8 28.7 28.8 c55.2 55 105.6 110.2 152.1 166.3 11.6 13.9 20.2 23.5 21 23.3 0.7 -0.3 8.2 -5.5 16.7 -11.6z m86.5 -60.1 c0 -1.2 -52.7 -39 -88 -63 -43.5 -29.6 -101.7 -65.8 -153 -95.3 -26.4 -15.2 -58.2 -32.6 -58.7 -32.1 -1 1 -2.5 13 -1.6 13.3 0.5 0.2 11.9 7.8 25.4 17 79.6 54.3 154 111.3 224.8 172.6 l14.5 12.4 18.3 -12.1 c10 -6.6 18.3 -12.4 18.3 -12.8z m64.3 -40 c70.4 -43 140 -81.1 212.6 -116.2 28 -13.6 74.2 -34.8 91.6 -42.1 5 -2.1 9.3 -4.1 9.7 -4.4 1.8 -1.5 -7.7 -33.2 -15.7 -53 -12.6 -31.1 -30.5 -61.4 -52.3 -88.8 -11.7 -14.6 -36.9 -39.7 -52.2 -51.9 -52.8 -42 -111.2 -66.1 -180.5 -74.6 -16.3 -1.9 -61.5 -1.7 -78 0.5 -58.1 7.8 -107.2 26.3 -154.5 58.5 -39.9 27.1 -75.9 65 -100.5 105.7 -13.5 22.4 -25.9 49.2 -33.6 72.6 -3 9.4 -7.9 27.5 -7.9 29.6 0 1.3 2.8 2.7 21.5 10.8 5.5 2.4 13.4 5.9 17.5 7.8 4.1 1.9 10.2 4.7 13.5 6.1 82.9 37.5 183.4 91 264.5 141 11.3 6.9 20.7 12.6 20.8 12.6 0.2 0 10.8 -6.4 23.5 -14.2z"/>
  <path d="M375.5 465.9 c-28.3 -17.2 -65.6 -38.8 -94.5 -54.6 -53.3 -29.3 -123.4 -64 -176.5 -87.5 -4.9 -2.2 -12.2 -5.5 -16.2 -7.3 l-7.1 -3.3 2.4 -8.4 c15 -52.2 48.3 -106.4 88.7 -144.2 54.3 -51 120.5 -81.4 193.8 -89.2 20.9 -2.2 60.7 -1.5 79.4 1.4 69.1 10.8 126.4 37.7 176.8 83 41.1 37 74.9 89.4 92.1 142.9 2 6.2 3.6 12.1 3.6 13.1 0 1.4 -1.9 2.7 -7.2 5 -9.9 4.1 -53 23.9 -70.3 32.2 -76.4 36.7 -152 77.6 -219.2 118.7 -11.1 6.7 -20.8 12.3 -21.5 12.2 -0.7 0 -11.6 -6.4 -24.3 -14z m36.6 -36.9 c14.4 -21.7 27.8 -52.5 34.9 -80.6 6.8 -26.5 8.4 -39.8 8.4 -71.4 0.1 -35.5 -2.7 -54.9 -12.1 -86 -8.3 -27.5 -25 -60.6 -40.6 -80.3 l-3 -3.8 -4.9 6.8 c-14.5 19.9 -28.1 46.6 -36.1 71.2 -9.6 28.9 -13.5 52 -14.4 83.2 -1.8 64.1 14.9 120.9 50.1 170.7 l5.1 7.2 2.8 -3.2 c1.6 -1.8 6 -8 9.8 -13.8z m-61.1 -13 c-9.1 -18.2 -18.9 -46.4 -23.5 -67.8 -1 -4.6 -2.1 -7.9 -2.5 -7.5 -0.3 0.4 -1.9 4.2 -3.5 8.3 -4.1 11 -11.5 25.4 -17.9 35 -3.1 4.5 -5.6 8.6 -5.6 8.9 0 0.4 7.8 5 17.3 10.4 9.4 5.3 22.2 12.5 28.2 16 6.1 3.6 11.1 6.1 11.3 5.7 0.2 -0.5 -1.5 -4.5 -3.8 -9z m111 0 c6.3 -3.7 17.8 -10.2 25.5 -14.5 7.7 -4.3 14.1 -7.9 14.3 -8.1 0.2 -0.1 -2.2 -3.9 -5.3 -8.4 -6.6 -9.6 -13.9 -24 -18.6 -36.3 -3.4 -9.1 -4.1 -9.4 -5.3 -2.2 -2.6 15 -15 51.3 -23 67.4 -2.1 4 -4.1 8.4 -4.6 9.7 l-1 2.4 3.3 -1.6 c1.7 -0.9 8.4 -4.7 14.7 -8.4z m-178.2 -44.6 c31.4 -46.3 35.3 -113.5 9.7 -164.9 -5.6 -11.2 -14.1 -24.6 -16 -25.2 -1.5 -0.5 -11.9 15.6 -17.1 26.3 -12.5 26 -18 56.8 -15.6 86.1 1.2 14.1 4.3 29.7 8.2 41.3 5 15.2 21.7 45.5 24.5 44.7 0.5 -0.2 3.3 -3.9 6.3 -8.3z m245.3 -0.6 c31.2 -47.6 34.9 -112.6 9.4 -164.3 -5.9 -12 -14.4 -25 -16.3 -25 -1.8 0 -10.5 13.5 -16.2 25 -25.6 52.1 -21.4 118.7 10.3 165.7 2.9 4.3 5.5 7.8 6 7.8 0.4 0 3.5 -4.2 6.8 -9.2z m-294.8 -18.5 c-14.6 -36.3 -17.6 -82 -7.8 -119.7 7.6 -29.1 17.1 -47.5 39.1 -75.7 l11.6 -14.8 7.7 9.7 c12.5 15.8 18.5 24.2 24 33.4 5.3 8.9 12 23.3 14.2 30.7 0.7 2.2 1.5 4.1 1.9 4.1 0.4 0 1.8 -4.4 3 -9.7 9.2 -40.3 27.8 -80.8 50.6 -110.5 l4.5 -5.8 -4.3 0 c-6.3 0 -27 2.7 -38.9 5.1 -102 20.2 -188 92.2 -226 189.3 -2.1 5.5 -3.9 10.5 -3.9 11 0 0.6 4.7 3.1 10.3 5.5 20.5 9 63.5 29.4 93.2 44.4 12.7 6.4 23.3 11.6 23.7 11.6 0.3 0.1 -0.9 -3.8 -2.9 -8.6z m365.4 -9.6 c31.3 -15.5 64.1 -31.1 85 -40.3 l5.3 -2.4 -2.6 -7.2 c-1.4 -4 -5.3 -13.1 -8.5 -20.2 -34.4 -75.9 -100.7 -136 -179.9 -162.9 -22.7 -7.7 -51.7 -13.9 -72.6 -15.3 l-9.8 -0.7 3.3 4.4 c24.5 32.8 41.5 69 51.2 109.4 1.7 7.2 3.2 13.1 3.4 13.3 0.1 0.1 1.5 -3.2 3 -7.5 3.4 -10 12 -27.2 17.5 -35.4 2.4 -3.5 9.5 -13.1 15.8 -21.2 l11.4 -14.8 6.5 8.3 c19.8 25.3 26.9 36.2 34 52.1 16.2 36.6 20.4 80.1 11.7 119.7 -2.1 9.3 -8.4 29 -11.9 37.3 -0.4 0.9 -0.5 1.7 -0.2 1.7 0.3 0 17.1 -8.2 37.4 -18.3z"/>
 </g>
</svg>