<?xml version="1.0" encoding="utf-8"?>
<!DOCTYPE svg PUBLIC "-//W3C//DTD SVG 20010904//EN" "http://www.w3.org/TR/2001/REC-SVG-20010904/DTD/svg10.dtd">
<svg version="1.0" xmlns="http://www.w3.org/2000/svg" width="742px" height="742px" viewBox="0 0 742 742" preserveAspectRatio="xMidYMid meet">
 <g fill="#0f5f54">
  <path d="M344 739.9 c-56.7 -4 -114.9 -22.6 -164.4 -52.4 -91.2 -54.9 -155.7 -149.1 -173.5 -253.5 -4 -23.4 -4.6 -32 -4.6 -63.5 0 -33.9 1 -44.9 6.5 -72.5 29.2 -145.7 144.3 -260.8 290 -290 27.6 -5.5 38.6 -6.5 72.5 -6.5 38.3 0 56.5 2 89 10 123 30.1 223.5 123.5 262.9 244.2 8.3 25.4 13.6 50.3 16.7 78.3 1.9 17.1 1.7 60.2 -0.5 78 -8.4 70.6 -34.9 134.5 -78.8 189.8 -13 16.3 -41.7 45 -58.1 58.1 -73.6 58.4 -164.6 86.6 -257.7 80z m52.5 -26.5 l6 -0.6 13.5 -19.1 c78.2 -110.5 165.2 -213.7 264.7 -313.6 31.9 -32.1 33.2 -33.5 32.5 -36.4 l-0.7 -2.9 -17 13.9 c-60.9 49.9 -117.5 101.2 -178.5 162.3 -48.9 48.8 -86.2 89 -129.6 139.5 -20 23.2 -46.5 55.7 -46 56.3 1.8 1.8 38.3 2.2 55.1 0.6z m-91 -61.8 c71.6 -74.3 161.6 -155.1 246.5 -221.2 47.5 -37.1 101.4 -76.1 144.8 -104.9 7.2 -4.9 13.2 -9.3 13.2 -9.9 -0.1 -4 -2.1 -3.3 -21.1 7.2 -69.9 38.9 -139.2 81.7 -199.9 123.5 -90.4 62.2 -174.1 128.2 -253.7 199.9 -23.3 21 -28 25.5 -27.2 26.2 1.7 1.6 24.3 12.2 37.9 17.7 l16.5 6.7 9.5 -10.1 c5.2 -5.6 20.3 -21.4 33.5 -35.1z m194.8 36.8 c12.4 -5 42.5 -20.3 47.2 -23.8 1.9 -1.5 6 -7.9 10.9 -17.2 42.5 -79.9 94.4 -164.8 146.9 -240.3 l8.7 -12.5 0 -6.9 0 -6.9 -7.1 8.3 c-69.2 81.6 -146.5 187.5 -202.8 277.9 -7.4 11.8 -14.1 22.5 -14.9 23.8 -0.8 1.2 -1.1 2.2 -0.8 2.2 0.4 0 5.8 -2.1 11.9 -4.6z m-324.3 -86.6 c6.6 -5 12 -9.5 12 -10 0 -3.2 -63.1 -90 -95.5 -131.4 -21.6 -27.5 -64.1 -79.4 -65.1 -79.4 -0.2 0 -0.1 3.3 0.2 7.3 l0.7 7.2 11.7 17 c37.4 54.2 79.3 120.8 112.5 179.2 6.1 10.6 11.1 19.3 11.3 19.3 0.2 0 5.7 -4.1 12.2 -9.2z m63.7 -47.3 c6.5 -4.7 11.9 -9 12.1 -9.5 0.8 -2.1 -69.3 -70.4 -111.8 -109.1 -36.1 -32.9 -108.8 -94.9 -111.1 -94.9 -0.5 0 -0.9 1.4 -0.9 3.1 0 2.6 3.6 6.6 28.7 31.8 54 53.9 102.6 106.9 150.6 164.4 10.5 12.5 19.4 22.7 19.8 22.7 0.5 0 6.1 -3.8 12.6 -8.5z m69.8 -48.5 c7.4 -5 13.5 -9.2 13.5 -9.4 0 -0.9 -54.2 -39.5 -84 -59.8 -31 -21 -75 -49.1 -112.5 -71.5 -32.7 -19.7 -92 -53.3 -93.9 -53.3 -0.3 0 -0.6 1 -0.6 2.3 0 1.9 4 5.1 22.7 17.8 78.3 53.2 154.2 111.2 223.2 170.7 8.5 7.3 16 13.1 16.7 12.8 0.7 -0.3 7.4 -4.6 14.9 -9.6z m84.2 -53.6 c68.1 -41.7 138.7 -80.2 210.2 -114.8 27.8 -13.5 73.8 -34.6 91.6 -42.1 5 -2.1 9.1 -3.9 9.2 -4 0.5 -0.3 -3.7 -14.6 -7.4 -26 -7.4 -22.6 -16 -41.9 -27.8 -62.5 -16.6 -29 -33.2 -50.8 -56.5 -74.1 -56.7 -56.8 -126 -90.1 -208.5 -100 -16 -2 -55.7 -1.7 -72 0.4 -58 7.7 -107.2 26.3 -154.5 58.5 -39.9 27.1 -75.9 65 -100.5 105.7 -13 21.7 -25.5 48.3 -33 71 -2.7 7.9 -7.5 24.9 -7.5 26.3 0 0.6 1.2 1.5 2.8 2 2.9 1.1 25.9 11.2 35.7 15.7 3.3 1.5 8.9 4.1 12.5 5.7 84.3 38.2 182.4 90.4 263.5 140.2 10.4 6.4 19.5 11.4 20.2 11.2 0.7 -0.3 10.6 -6.2 22 -13.2z"/>
  <path d="M343.5 439.9 c-28.3 -17.2 -65.6 -38.8 -94.5 -54.6 -53.3 -29.3 -123.4 -64 -176.5 -87.5 -22.6 -10 -23.5 -10.5 -23.5 -13.4 0 -2.8 4.7 -19.6 7.8 -27.9 6.3 -16.6 9.4 -23.7 16.7 -38 29.8 -58.7 73.8 -104.8 132 -138.1 38.4 -22 82.8 -36.1 128.6 -41 21.5 -2.2 66.7 -1.5 85.4 1.4 58.8 9.2 108.1 29.6 152.7 63.2 41.3 31 73.4 69.5 96.6 115.5 12.6 25 23.2 54 23.2 63.3 l0 4.9 -7.2 3.1 c-9.9 4.1 -53 23.9 -70.3 32.2 -76.4 36.7 -152 77.6 -219.2 118.7 -17.9 10.9 -20.7 12.3 -24.5 12.2 -3.7 -0.1 -7.6 -2.1 -27.3 -14z m38.6 -45.9 c18.9 -29.7 33.1 -68.8 39 -107.1 3 -19.2 3.3 -57 0.6 -75.4 -5 -33.8 -14.5 -64 -28.8 -91.3 -5.8 -11.3 -18.9 -32.1 -21.3 -34.1 -1.9 -1.6 -15 18.8 -25.1 39 -17.3 35 -26.9 73.5 -28.2 114.4 -1.8 56 14 113 44 158.3 l8.2 12.4 2.8 -3.4 c1.6 -1.8 5.5 -7.6 8.8 -12.8z m-60 -7.6 c-9.7 -19.5 -17.8 -42.5 -22.6 -64.2 -1.5 -6.4 -2.8 -11.9 -3.1 -12.1 -0.2 -0.2 -0.6 0.5 -1 1.5 -5.6 16.4 -13.1 31.4 -22.2 44.8 -3 4.4 -5 8.2 -4.6 8.3 0.5 0.2 13.7 7.7 29.4 16.6 15.7 9 28.6 16.1 28.8 15.7 0.1 -0.3 -2 -5.1 -4.7 -10.6z m112.4 0.1 c8.8 -5.1 21.1 -12 27.3 -15.4 6.1 -3.5 11.2 -6.6 11.2 -7.1 0 -0.5 -2.5 -4.5 -5.6 -8.9 -6.5 -9.5 -15.1 -26.4 -18.9 -37.4 -1.5 -4.3 -3 -7.6 -3.2 -7.3 -0.3 0.2 -1.4 4.4 -2.4 9.3 -4.9 21.8 -13.2 45.5 -22.8 65.3 -3.1 6.3 -5.7 11.9 -6 12.3 -0.4 1.1 0.8 0.5 20.4 -10.8z m-178.1 -54.5 c11.8 -19.9 19.5 -45 21.4 -69.8 2.6 -32.7 -6.7 -68.9 -25.1 -97.6 l-4.4 -6.8 -4.7 7.3 c-18.1 28.2 -27.6 65.8 -24.7 97.9 1.3 13.6 3.8 26.4 7.7 38.7 3.1 9.7 13.8 32 18.4 38.2 l3.2 4.4 1.9 -2.4 c1.1 -1.3 3.9 -5.8 6.3 -9.9z m245 -0.1 c11.7 -19.6 19.8 -46.1 21.4 -70.3 1.8 -26.3 -3.7 -54.8 -15.2 -79.1 -4.5 -9.5 -13.1 -23.5 -14.4 -23.5 -2.7 0 -16.6 26.8 -21.6 42 -9.3 27.8 -10.6 56.2 -4 86 3.9 17.6 13.8 40.9 22.1 52.4 l3.6 4.9 1.8 -2.4 c1 -1.3 3.8 -5.8 6.3 -10z m-295.2 -7.1 c-17.3 -42.2 -18.9 -91.5 -4.6 -134.7 4.4 -13.1 12.5 -30 19.6 -40.6 5.2 -7.9 25.2 -34 26.7 -34.9 0.9 -0.6 19.3 22.6 26.9 33.9 6.5 9.7 13.7 23.9 18.2 35.8 l3.3 8.9 4.3 -16.9 c10.1 -40.4 25.7 -73.8 48.6 -104.2 2.6 -3.5 4.8 -6.7 4.8 -7.2 0 -0.9 -9.2 -0.2 -26.5 2.2 -99.7 14 -186.6 76.5 -231.1 166.4 -4.6 9.4 -10.2 21.6 -12.4 27.3 l-3.9 10.3 6.7 3 c27 12.2 53.8 24.9 85.2 40.5 20.1 10 36.7 18 36.9 17.8 0.2 -0.2 -1 -3.6 -2.7 -7.6z m343.1 -0.2 c18.9 -9.9 63.8 -31.5 91.7 -44.1 10.7 -4.9 19.7 -9 19.9 -9.2 0.3 -0.2 -1 -4.2 -2.9 -9.1 -22.5 -59.8 -63.3 -111 -117 -146.7 -36.8 -24.5 -76.7 -40.2 -120.2 -47.4 -11.5 -1.9 -32.9 -4.2 -33.6 -3.6 -0.1 0.1 2.6 4 6.1 8.6 22.3 29.6 39.8 68.1 49.3 108.3 2 8.5 3 11.4 3.5 10 0.5 -1 2.6 -6.5 4.7 -12.1 2.2 -5.7 6.3 -14.6 9.3 -19.8 4.8 -8.7 21.7 -32.2 30.1 -41.9 l3.3 -3.8 12.6 16.3 c14.1 18.4 20 27.5 25.8 39.9 23.6 50.6 23.7 109.6 0.3 162.3 -0.7 1.4 0.9 0.7 17.1 -7.7z"/>
 </g>
 <g fill="#6eb260">
  <path d="M348.5 717 c-7.1 -0.5 -13.6 -1.1 -14.3 -1.2 -2.2 -0.5 41.2 -52.7 81.1 -97.6 33.4 -37.6 58.5 -64.1 99.2 -104.7 61.5 -61.5 118.6 -113.3 182.5 -165.5 l18.5 -15.1 0.8 8.3 0.9 8.3 -33.4 33.5 c-99.4 99.8 -186.4 202.9 -264.8 313.7 l-13.5 19.1 -5.5 0.6 c-10.7 1.1 -38.7 1.4 -51.5 0.6z"/>
  <path d="M245.5 694.1 c-9.4 -3.7 -23.5 -10.1 -31.3 -14 l-14.3 -7.3 7.8 -7.2 c95 -88.3 207.5 -176.4 316.3 -247.8 40.7 -26.7 94.8 -60.1 130.5 -80.3 27.3 -15.5 56.2 -31.5 56.9 -31.5 0.2 0 0.7 2.1 1 4.8 0.4 2.6 0.9 5.5 1.2 6.4 0.4 1.3 -3.2 4.2 -14.8 11.9 -107.1 71.5 -211.7 154.8 -311.8 248.2 -25.6 24 -86.5 84.8 -107.5 107.5 -8.2 8.9 -15.4 16.2 -16 16.2 -0.5 0 -8.7 -3.1 -18 -6.9z"/>
  <path d="M480.1 697.9 c0.9 -1.3 4.4 -7.1 7.9 -12.9 41.6 -68.9 106.7 -162.4 161.3 -231.8 27.2 -34.5 66.6 -82.1 68 -82.2 0.5 0 0.5 6 0.2 13.3 l-0.7 13.2 -7.5 11 c-59.9 87.7 -100.2 153.2 -142.5 232 -7.5 13.9 -14.1 25.1 -15.8 26.6 -6.9 6 -57.2 29.5 -69.5 32.5 -2.9 0.7 -2.9 0.7 -1.4 -1.7z"/>
  <path d="M148.9 593.8 c-34.4 -60.3 -74.9 -124.9 -112 -178.5 l-11.9 -17.1 -0.7 -13.6 c-0.3 -7.5 -0.3 -13.6 0 -13.6 0.6 0 28.6 33.3 45.8 54.5 36.7 45.2 83.7 108.3 115.9 155.2 l8.3 12.3 -2.5 1.9 c-14.6 11.6 -28.4 22.1 -28.9 22.1 -0.4 0 -6.7 -10.5 -14 -23.2z"/>
  <path d="M205.8 545.2 c-46.5 -56.1 -96.9 -111.3 -152.1 -166.3 l-28.7 -28.8 0.1 -5.8 c0.3 -13 -1.1 -13.3 20.9 4.8 36 29.6 74.6 63.1 107.5 93.3 24.9 22.9 77.2 73.6 91.5 88.6 l13.9 14.7 -15.4 11.2 c-8.5 6.1 -16 11.3 -16.7 11.6 -0.8 0.2 -9.4 -9.4 -21 -23.3z"/>
  <path d="M278.9 509.3 c-70.8 -61.3 -145.2 -118.3 -224.8 -172.6 -13.5 -9.2 -24.9 -16.8 -25.4 -17 -0.9 -0.3 0.6 -12.3 1.6 -13.3 0.5 -0.5 32.3 16.9 58.7 32.1 51.3 29.5 109.5 65.7 153 95.3 35.3 24 88 61.8 88 63 0 0.4 -8.3 6.2 -18.3 12.8 l-18.3 12.1 -14.5 -12.4z"/>
  <path d="M350 458.4 c-81.1 -50 -181.6 -103.5 -264.5 -141 -3.3 -1.4 -9.4 -4.2 -13.5 -6.1 -4.1 -1.9 -12 -5.4 -17.5 -7.8 -18.7 -8.1 -21.5 -9.5 -21.5 -10.8 0 -2.1 4.9 -20.2 7.9 -29.6 10.4 -31.6 28.1 -66.5 47.4 -93.6 16.3 -22.8 43.5 -51.6 64.7 -68.6 51 -40.8 109.9 -65.7 176.5 -74.6 16.5 -2.2 61.7 -2.4 78 -0.5 82.7 10.1 151.8 43.3 208.5 100.1 33.6 33.6 58.8 71.7 76.5 115.2 8 19.8 17.5 51.5 15.7 53 -0.4 0.3 -4.7 2.3 -9.7 4.4 -17.4 7.3 -63.6 28.5 -91.6 42.1 -72.6 35.1 -142.2 73.2 -212.6 116.2 -12.7 7.8 -23.3 14.2 -23.5 14.2 -0.1 0 -9.5 -5.7 -20.8 -12.6z m42.3 -19.7 c67.2 -41.1 142.8 -82 219.2 -118.7 17.3 -8.3 60.4 -28.1 70.3 -32.2 5.3 -2.3 7.2 -3.6 7.2 -5 0 -1 -1.6 -6.9 -3.6 -13.1 -17.2 -53.5 -51 -105.9 -92.1 -142.9 -50.4 -45.3 -107.7 -72.2 -176.8 -83 -18.7 -2.9 -58.5 -3.6 -79.4 -1.4 -92.5 9.8 -175.1 56.7 -231.2 131.2 -21.8 29 -41.6 68.5 -51.3 102.2 l-2.4 8.4 7.1 3.3 c4 1.8 11.3 5.1 16.2 7.3 87.5 38.7 184.5 89.5 271 142.1 12.7 7.6 23.6 14 24.3 14 0.7 0.1 10.4 -5.5 21.5 -12.2z"/>
 </g>
 <g fill="#ffcf4b">
  <path d="M365.4 409.7 c-19.4 -27.2 -32.8 -56.1 -41.4 -89.4 -11.2 -43.2 -11.9 -91.9 -2 -137.8 3.9 -18.1 12.6 -42.5 21.6 -60.4 7.8 -15.6 20.7 -37.1 22.3 -37.1 1.2 0 15.5 20.7 20 29 1.4 2.5 2.7 4.7 3 5 1.2 1 8.1 15.2 8.1 16.6 0 0.8 0.5 1.4 1 1.4 0.6 0 1 0.8 1 1.8 0 0.9 0.7 2.6 1.5 3.6 0.8 1.1 1.5 2.6 1.5 3.4 0 0.7 1.1 3.7 2.4 6.5 6.2 13.2 13.3 43.3 15.7 66.1 1.5 15.7 0.7 56.4 -1.6 70.6 -5.1 32.8 -12.9 59.1 -26.3 88.8 -5.2 11.7 -18 35.3 -20.5 37.9 -0.9 0.9 -2.4 -0.5 -6.3 -6z"/>
  <path d="M242.3 343.2 c-5.8 -8.6 -15 -27.2 -18.3 -37.2 -13.1 -39.2 -11.2 -84.7 5 -122.1 5.3 -12.3 13 -25 14.9 -24.7 1.8 0.4 10.9 14.6 14.7 22.8 1.4 3 3.2 6.7 4 8.2 0.8 1.4 1.4 3.5 1.4 4.5 0 1 0.4 2.3 0.9 2.8 1.5 1.5 5.7 16.9 7.7 28 2.4 13.9 2.5 49.9 0 63.5 -2.2 12.4 -5.9 25.5 -10.3 36 -3.6 8.9 -13 26 -14.1 26 -0.4 0 -3 -3.5 -5.9 -7.8z"/>
  <path d="M487.3 343.2 c-30.1 -44.6 -35.5 -107.4 -13.7 -158.5 4.7 -10.9 13.2 -25.7 14.8 -25.7 1.2 0 10.6 13.3 10.6 15 0 0.4 0.9 1.8 2.1 3.1 1.1 1.3 2.3 3.6 2.6 5.2 0.3 1.5 1 3 1.4 3.3 0.5 0.3 0.9 1.4 0.9 2.5 0 1 0.5 1.9 1 1.9 0.6 0 1 0.9 1 2 0 1.2 0.7 3.1 1.5 4.3 1.9 3 7.1 23.3 8.7 34.3 1.6 11.2 1.6 44.3 -0.1 54.9 -1.9 12.5 -6.6 29.5 -11 40 -3.8 9.1 -12.9 25.5 -14 25.5 -0.3 0 -2.9 -3.5 -5.8 -7.8z"/>
 </g>
 <g fill="#f8ac3c">
  <path d="M369.9 416.5 c-0.6 -3.2 -0.5 -6.5 0.3 -6.5 0.5 0 0.7 -0.4 0.4 -0.9 -0.3 -0.5 0.1 -1.2 1 -1.5 0.8 -0.3 1.2 -1 0.9 -1.6 -0.3 -0.5 -0.1 -1 0.5 -1 0.6 0 0.9 -0.4 0.6 -0.9 -0.3 -0.5 0.1 -1.2 1 -1.5 0.8 -0.3 1.2 -1 0.9 -1.6 -0.3 -0.5 -0.1 -1 0.5 -1 0.6 0 0.8 -0.4 0.5 -1 -0.3 -0.5 -0.1 -1 0.5 -1 0.6 0 0.8 -0.4 0.5 -1 -0.3 -0.5 -0.1 -1 0.4 -1 1.4 0 11.3 -19.8 10.6 -21 -0.4 -0.6 -0.1 -1 0.5 -1 0.6 0 0.8 -0.4 0.5 -1 -0.3 -0.5 -0.1 -1 0.6 -1 0.7 0 1 -0.3 0.6 -0.6 -0.3 -0.4 0.1 -1.3 0.9 -2.1 0.8 -0.9 1.3 -2 1.1 -2.7 -0.2 -0.6 0.3 -1.7 1 -2.5 0.8 -0.7 1.2 -2 0.9 -2.7 -0.3 -0.8 -0.1 -1.4 0.5 -1.4 0.6 0 0.7 -0.4 0.4 -1 -0.3 -0.5 -0.1 -1 0.5 -1 0.7 0 1 -0.6 0.8 -1.2 -0.3 -0.7 0.2 -1.9 0.9 -2.7 0.8 -0.7 1.2 -2 0.9 -2.7 -0.3 -0.8 -0.1 -1.4 0.5 -1.4 0.6 0 0.9 -0.7 0.5 -1.5 -0.3 -0.8 -0.1 -1.5 0.5 -1.5 0.6 0 0.9 -0.7 0.5 -1.5 -0.3 -0.8 -0.1 -1.5 0.5 -1.5 0.6 0 0.9 -0.7 0.5 -1.5 -0.3 -0.8 -0.1 -1.5 0.5 -1.5 0.6 0 0.9 -0.7 0.5 -1.5 -0.3 -0.8 -0.1 -1.5 0.5 -1.5 0.6 0 0.9 -0.7 0.5 -1.5 -0.3 -0.8 -0.1 -1.5 0.5 -1.5 0.6 0 0.9 -0.7 0.5 -1.5 -0.3 -0.8 0 -1.5 0.5 -1.5 0.6 0 0.9 -0.9 0.6 -2 -0.3 -1.1 -0.1 -2 0.5 -2 0.6 0 0.8 -0.7 0.4 -1.5 -0.3 -0.8 0 -1.5 0.5 -1.5 0.6 0 0.9 -0.9 0.6 -2 -0.3 -1.1 -0.1 -2 0.5 -2 0.5 0 0.6 -0.9 0.3 -2 -0.4 -1.2 -0.2 -2 0.5 -2 0.7 0 0.9 -0.8 0.5 -2 -0.4 -1.2 -0.2 -2 0.5 -2 0.7 0 1 -0.8 0.7 -2 -0.3 -1.1 -0.1 -2.3 0.5 -2.6 0.5 -0.3 0.7 -1.3 0.4 -2.1 -0.4 -0.9 -0.1 -2.2 0.5 -2.9 0.6 -0.7 0.8 -1.8 0.4 -2.4 -0.3 -0.5 -0.3 -1.6 0.2 -2.2 0.4 -0.7 0.9 -2.4 1.1 -3.8 0.4 -4.1 0.9 -7.4 1.2 -8.5 0.3 -1 0.4 -1.9 1.6 -13 0.8 -8.1 0.8 -46.5 -0.1 -54 -1.4 -12.2 -1.9 -15.6 -4.1 -26.5 -0.3 -1.4 -0.5 -3.2 -0.6 -4 0 -0.8 -0.5 -2 -1 -2.7 -0.5 -0.7 -0.7 -1.7 -0.4 -2.2 0.4 -0.5 0.1 -1.3 -0.5 -1.6 -0.5 -0.4 -0.8 -1.3 -0.5 -2 0.2 -0.7 0.2 -1.6 -0.2 -1.9 -0.3 -0.4 -0.7 -1.3 -0.9 -2.1 -0.5 -2.7 -1.1 -5 -1.3 -5.2 -0.2 -0.2 -0.4 -0.7 -0.5 -1.3 -0.1 -0.5 -0.4 -1.2 -0.5 -1.5 -0.1 -0.3 -0.4 -0.9 -0.5 -1.5 -0.1 -0.5 -0.4 -1.2 -0.5 -1.5 -0.1 -0.3 -0.4 -0.9 -0.5 -1.5 -0.1 -0.5 -0.4 -1.2 -0.5 -1.5 -0.1 -0.3 -0.4 -0.9 -0.5 -1.5 -0.1 -0.5 -0.4 -1.2 -0.5 -1.5 -0.1 -0.3 -0.3 -0.8 -0.4 -1.2 -0.1 -0.5 -0.9 -2.5 -1.9 -4.6 -1 -2.1 -2 -4.6 -2.2 -5.7 -0.2 -1 -1.1 -2.9 -1.9 -4.3 -0.9 -1.3 -1.3 -2.7 -0.9 -3 0.3 -0.4 0.1 -0.7 -0.5 -0.7 -0.6 0 -1.3 -1.3 -1.7 -2.9 -0.3 -1.6 -2.1 -5.4 -4 -8.5 -1.8 -3.1 -3 -5.6 -2.7 -5.6 0.4 0 0.2 -0.4 -0.4 -0.8 -0.6 -0.4 -2.2 -2.7 -3.5 -5.2 -1.3 -2.5 -5.6 -9.1 -9.4 -14.8 -11 -16.2 -10.4 -14.2 -6.3 -19.6 l3.6 -4.6 3 3.7 c5.7 7.3 16.2 24.1 22.1 35.4 14.3 27.3 23.8 57.4 28.8 91.4 2.7 18.7 2.5 62.1 -0.6 81.4 -4.7 30.3 -13.3 57.7 -26.6 84.6 -9.4 19 -26.9 45.6 -27.6 42z"/>
  <path d="M246.6 349.5 c-0.3 -0.9 -0.1 -2.5 0.4 -3.6 0.6 -1 0.7 -1.9 0.3 -1.9 -0.4 0 0 -0.5 1 -1.1 0.9 -0.6 1.5 -1.4 1.2 -2 -0.4 -0.5 -0.1 -0.9 0.5 -0.9 0.6 0 0.8 -0.4 0.5 -1 -0.3 -0.5 -0.1 -1 0.5 -1 0.6 0 0.8 -0.4 0.5 -1 -0.3 -0.5 -0.2 -1 0.4 -1 1.4 0 5.3 -7.8 4.6 -9 -0.3 -0.6 -0.1 -1 0.6 -1 0.7 0 1 -0.3 0.6 -0.6 -0.3 -0.4 0.1 -1.3 0.9 -2.1 0.8 -0.9 1.3 -2.2 1 -2.9 -0.3 -0.8 -0.1 -1.4 0.5 -1.4 0.6 0 0.7 -0.4 0.4 -1 -0.3 -0.5 -0.1 -1 0.5 -1 0.7 0 1 -0.7 0.6 -1.5 -0.3 -0.8 -0.1 -1.5 0.5 -1.5 0.6 0 0.9 -0.7 0.5 -1.5 -0.3 -0.8 -0.1 -1.5 0.5 -1.5 0.6 0 0.9 -0.7 0.5 -1.5 -0.3 -0.8 -0.1 -1.5 0.5 -1.5 0.6 0 0.9 -0.7 0.6 -1.5 -0.4 -0.8 -0.2 -1.7 0.4 -2.1 0.6 -0.3 0.8 -1.2 0.5 -2 -0.3 -0.8 0 -1.4 0.5 -1.4 0.6 0 0.9 -0.9 0.6 -2 -0.3 -1.1 -0.1 -2 0.5 -2 0.6 0 0.8 -0.9 0.5 -2 -0.3 -1.1 -0.1 -2.2 0.4 -2.5 0.5 -0.4 0.9 -1.6 0.9 -2.8 0 -1.2 0.2 -3.8 0.5 -5.7 1.2 -7 1.6 -14.8 1.6 -26.5 0.1 -13.8 -0.7 -23.1 -2.6 -33 -0.3 -1.6 -0.6 -3.7 -0.7 -4.5 0 -0.8 -0.5 -2 -1 -2.7 -0.5 -0.7 -0.7 -1.7 -0.4 -2.2 0.4 -0.5 0.2 -1.2 -0.4 -1.6 -0.6 -0.4 -0.8 -1.1 -0.4 -1.6 0.3 -0.5 0 -1.6 -0.6 -2.4 -0.7 -0.8 -0.9 -1.5 -0.5 -1.5 0.4 0 0.2 -0.7 -0.5 -1.5 -0.7 -0.8 -0.9 -1.5 -0.5 -1.5 0.4 0 0.2 -0.7 -0.5 -1.5 -0.7 -0.8 -0.9 -1.5 -0.5 -1.5 0.4 0 0.3 -0.6 -0.3 -1.3 -0.6 -0.7 -1.3 -2.4 -1.6 -3.9 -0.2 -1.4 -1.1 -3.7 -2 -5 -0.8 -1.2 -1.6 -2.7 -1.7 -3.3 -0.5 -3.3 -10.7 -21.2 -14.5 -25.6 -1.2 -1.3 -0.9 -2.2 1.9 -6.2 1.7 -2.6 3.7 -4.5 4.2 -4.4 1.8 0.6 10.4 14.1 16 25.2 25.6 51.4 21.7 118.6 -9.7 164.9 -5.7 8.4 -7.2 9.7 -8.2 7.1z"/>
  <path d="M491.5 349 c-0.4 -1.2 -0.1 -2.7 0.5 -3.5 0.7 -0.8 0.9 -1.5 0.4 -1.5 -0.5 0 -0.1 -0.5 0.9 -1.1 0.9 -0.6 1.5 -1.4 1.2 -2 -0.4 -0.5 -0.1 -0.9 0.5 -0.9 0.6 0 0.8 -0.4 0.5 -1 -0.3 -0.5 -0.1 -1 0.5 -1 0.6 0 0.8 -0.4 0.5 -1 -0.3 -0.5 -0.2 -1 0.4 -1 1.4 0 5.3 -7.8 4.6 -9 -0.3 -0.6 -0.1 -1 0.6 -1 0.7 0 1 -0.3 0.6 -0.6 -0.3 -0.4 0.1 -1.3 0.9 -2.1 0.8 -0.9 1.3 -2 1.1 -2.7 -0.2 -0.6 0.3 -1.7 1 -2.5 0.8 -0.7 1.2 -2 0.9 -2.7 -0.3 -0.8 -0.1 -1.4 0.5 -1.4 0.6 0 0.9 -0.7 0.5 -1.5 -0.3 -0.8 -0.1 -1.5 0.5 -1.5 0.6 0 0.9 -0.7 0.5 -1.5 -0.3 -0.8 -0.1 -1.5 0.5 -1.5 0.6 0 0.9 -0.7 0.6 -1.5 -0.4 -0.8 -0.2 -1.7 0.4 -2.1 0.6 -0.3 0.8 -1.2 0.5 -2 -0.3 -0.7 -0.1 -1.6 0.5 -2 0.6 -0.3 0.8 -1.2 0.5 -2 -0.3 -0.7 -0.1 -1.6 0.5 -2 0.6 -0.3 0.8 -1.2 0.5 -2 -0.3 -0.7 0 -1.6 0.5 -2 0.6 -0.3 0.8 -1.7 0.5 -2.9 -0.3 -1.3 -0.2 -2.6 0.4 -3 0.5 -0.3 0.9 -1.8 0.9 -3.3 0 -1.5 0.4 -5.6 0.7 -9.2 1.6 -14.4 0.7 -34.4 -2.1 -48.2 -0.3 -1.6 -0.7 -3.8 -1 -5 -0.2 -1.3 -0.7 -3.4 -1 -4.8 -0.3 -1.4 -0.8 -3.2 -1 -4 -0.2 -0.8 -0.4 -1.6 -0.5 -1.7 -0.2 -0.2 -0.4 -0.7 -0.5 -1.3 -0.1 -0.5 -0.4 -1.3 -0.5 -1.7 -0.1 -0.5 -0.2 -1.2 -0.1 -1.7 0.1 -0.4 -0.4 -1.4 -1 -2.2 -0.6 -0.8 -0.9 -1.4 -0.5 -1.4 0.3 0 -0.3 -1.6 -1.4 -3.7 -1 -2 -1.7 -4 -1.4 -4.5 0.3 -0.4 0 -0.8 -0.5 -0.8 -0.6 0 -1.1 -0.8 -1.1 -1.7 0 -1 -0.7 -2.7 -1.5 -3.7 -0.8 -1 -1.2 -2.3 -0.9 -2.7 0.3 -0.5 0 -0.9 -0.6 -0.9 -0.6 0 -0.8 -0.4 -0.5 -1 0.3 -0.5 0.1 -1 -0.5 -1 -0.6 0 -0.8 -0.4 -0.5 -1 0.3 -0.5 0.2 -1 -0.4 -1 -0.5 0 -1.3 -0.9 -1.6 -2.1 -0.4 -1.1 -2.9 -5.4 -5.6 -9.4 l-4.9 -7.5 3.1 -4.2 c1.7 -2.4 3.5 -4.3 4.2 -4.3 1.8 0 10.4 13.3 16.2 25 25.5 51.7 21.8 116.7 -9.4 164.3 -3.3 5 -6.5 9.2 -7 9.2 -0.5 0 -1.3 -0.9 -1.6 -2z"/>
 </g>
</svg>